<svg height="512pt" viewBox="0 -32 512 512" width="512pt" xmlns="http://www.w3.org/2000/svg"><path d="m433.445312 123.417969c-4.65625-1.378907-7.425781-6.152344-6.300781-10.871094 1.703125-7.167969 2.5625-14.269531 2.5625-21.117187 0-50.414063-41.015625-91.429688-91.429687-91.429688-42.789063 0-80.578125 23.742188-91.894532 57.746094-.871093 2.625-2.882812 4.707031-5.46875 5.679687-2.570312.957031-5.46875.71875-7.84375-.6875-12.773437-7.523437-22.867187-7.882812-41.070312-7.882812-47.460938 0-86.566406 36.363281-90.988281 82.691406 15.890625.894531 28.992187 3.957031 40.292969 9.746094 4.496093 2.292969 6.28125 7.804687 3.976562 12.296875-1.621094 3.164062-4.820312 4.980468-8.148438 4.980468-1.398437 0-2.824218-.320312-4.148437-1.003906-10.863281-5.550781-24.066406-8.136718-41.554687-8.136718-50.414063 0-91.429688 41.015624-91.429688 91.425781 0 50.414062 41.015625 91.429687 91.429688 91.429687h46.0625c.035156-.519531.144531-1.023437.191406-1.542968.152344-1.773438.417968-3.523438.65625-5.277344 4.726562-34.933594 25.992187-67.070313 55.984375-85.511719 3.023437-1.855469 6.132812-3.574219 9.324219-5.148437 34.347656-16.878907 76.953124-15.734376 110.355468 2.953124 31.167969 17.445313 53.476563 49.683594 59.234375 84.882813.523438 3.171875 1.023438 6.425781 1.269531 9.636719h27.777344c60.5 0 109.714844-49.214844 109.714844-109.714844-.007812-48.210938-32.3125-91.445312-78.554688-105.144531zm0 0"/><path d="m255.992188 246.855469c-55.453126 0-100.574219 45.121093-100.574219 100.574219 0 55.449218 45.121093 100.570312 100.574219 100.570312 55.449218 0 100.570312-45.121094 100.570312-100.570312 0-55.453126-45.121094-100.574219-100.570312-100.574219zm45.246093 132.902343c3.574219 3.574219 3.574219 9.351563 0 12.929688-1.78125 1.78125-4.121093 2.675781-6.464843 2.675781-2.339844 0-4.679688-.894531-6.460938-2.675781l-32.332031-32.332031-32.328125 32.332031c-1.78125 1.78125-4.125 2.675781-6.464844 2.675781s-4.679688-.894531-6.464844-2.675781c-3.574218-3.578125-3.574218-9.355469 0-12.929688l32.332032-32.328124-32.332032-32.332032c-3.574218-3.574218-3.574218-9.351562 0-12.925781 3.578125-3.574219 9.355469-3.574219 12.929688 0l32.328125 32.328125 32.332031-32.328125c3.574219-3.574219 9.351562-3.574219 12.925781 0s3.574219 9.351563 0 12.925781l-32.328125 32.332032zm0 0"/></svg>