<svg height="511pt" viewBox="-17 0 511 511.99607" width="511pt" xmlns="http://www.w3.org/2000/svg"><path d="m469.839844 247.460938h-175.667969l70.769531-70.765626c3.335938-3.335937 3.335938-8.730468 0-12.066406-3.328125-3.335937-8.738281-3.335937-12.066406 0l-85.335938 85.335938c-.785156.785156-1.414062 1.730468-1.84375 2.773437-.859374 2.089844-.859374 4.433594 0 6.515625.4375 1.042969 1.058594 1.988282 1.84375 2.773438l85.335938 85.335937c1.664062 1.664063 3.847656 2.5 6.03125 2.5s4.371094-.835937 6.035156-2.5c3.335938-3.335937 3.335938-8.730469 0-12.066406l-70.769531-70.765625h175.667969c4.710937 0 8.535156-3.824219 8.535156-8.535156 0-4.710938-3.824219-8.535156-8.535156-8.535156zm0 0"/><path d="m341.839844 358.394531c-4.710938 0-8.535156 3.824219-8.535156 8.535157v102.398437h-93.863282v-426.664063h93.863282v102.398438c0 4.710938 3.824218 8.535156 8.535156 8.535156 4.710937 0 8.535156-3.824218 8.535156-8.535156v-110.933594c0-4.710937-3.824219-8.53125-8.535156-8.53125h-102.398438v-17.066406c0-2.492188-1.085937-4.855469-2.980468-6.480469-1.894532-1.621093-4.394532-2.328125-6.851563-1.9531248l-221.867187 34.1328128c-4.164063.640625-7.246094 4.226562-7.246094 8.433593v426.664063c0 4.214844 3.074218 7.792969 7.238281 8.433594l221.867187 34.132812c.433594.066407.871094.101563 1.296876.101563 2.023437 0 4-.71875 5.554687-2.054688 1.886719-1.625 2.976563-3.988281 2.976563-6.480468v-17.066407h102.402343c4.710938 0 8.53125-3.820312 8.53125-8.53125v-110.933593c.011719-4.710938-3.8125-8.535157-8.523437-8.535157zm-170.667969-76.796875c-18.824219 0-34.132813-15.308594-34.132813-34.136718 0-18.824219 15.308594-34.132813 34.132813-34.132813s34.132813 15.308594 34.132813 34.132813c0 18.828124-15.316407 34.136718-34.132813 34.136718zm0 0"/><path d="m188.238281 247.460938c0 9.425781-7.640625 17.070312-17.066406 17.070312s-17.066406-7.644531-17.066406-17.070312c0-9.425782 7.640625-17.066407 17.066406-17.066407s17.066406 7.640625 17.066406 17.066407zm0 0"/></svg>